<?xml version="1.0" encoding="utf-8"?>
<!-- Generator: Adobe Illustrator 25.0.1, SVG Export Plug-In . SVG Version: 6.00 Build 0)  -->
<svg version="1.1" id="Capa_1" xmlns="http://www.w3.org/2000/svg" xmlns:xlink="http://www.w3.org/1999/xlink" x="0px" y="0px"
	 viewBox="0 0 187.2 135.8" style="enable-background:new 0 0 187.2 135.8;" xml:space="preserve">
<style type="text/css">
	.st0{fill:#4D4D4D;}
	.st1{fill:#9A1413;}
	.st2{fill:#7E7564;}
</style>
<g id="Layer_2">
	<g id="Layer_1-2">
		<path class="st0" d="M0.5,106.8h0.4c1.2-0.1,1.6-0.1,1.8-0.5s0.2-0.3,0.2-2.5V91.5c0-1.7,0-1.8-0.3-2.2s-0.4-0.4-1.9-0.4H0v-0.6
			c2.5-0.2,5-0.3,6.7-0.3c3.1,0,4.8,0.3,6.1,1c1.7,0.8,2.7,2.5,2.7,4.4c0,3.6-2.9,5.9-7.4,5.9c-0.9,0-1.7-0.1-2.6-0.3v4.4
			c-0.1,0.8,0,1.6,0.3,2.4c0.5,0.6,1.3,1,2.2,0.8H9v0.6H0.5V106.8z M7.2,98.8c2.8,0.2,5.2-2,5.4-4.8c0-0.2,0-0.3,0-0.5
			c0.1-1.5-0.5-2.9-1.6-3.9c-1.1-0.7-2.4-1-3.7-0.9c-0.6,0-1.3,0-1.9,0.2v9.7C6,98.6,6.6,98.7,7.2,98.8L7.2,98.8z"/>
		<path class="st0" d="M24.6,93.6c3.9,0,7.1,3.2,7.1,7.1s-3.2,7.1-7.1,7.1c0,0,0,0,0,0c-4.3,0-7.3-3-7.3-7.1c-0.1-3.9,3-7.1,6.9-7.1
			C24.3,93.6,24.4,93.6,24.6,93.6z M24.7,107.1c3,0,4.8-2.5,4.8-6.4c0.1-1.9-0.5-3.8-1.8-5.2c-0.9-0.8-2.1-1.2-3.3-1.2
			c-2.9,0-4.8,2.5-4.8,6.3c0,2.4,0.6,4.1,1.8,5.2C22.3,106.7,23.5,107.1,24.7,107.1z"/>
		<path class="st0" d="M33.8,106.8c1.3-0.1,1.5-0.1,1.9-0.4s0.5-0.6,0.5-1.6v-8c0-1.7-0.2-1.8-2.4-1.9v-0.5c2.1-0.3,4.3-0.4,6.4-0.5
			c2.3-0.1,4.6,0.5,6.5,1.7c1.4,1.2,2.2,3,2.2,4.8c0,2.6-1.5,5-3.9,6c-1.9,0.7-3.9,1-5.9,0.8h-5.3V106.8z M38.3,105.3
			c0,0.7,0,0.9,0.1,1.1s0.8,0.4,1.8,0.4c4,0,6.3-2.3,6.3-6.2c0.1-1.8-0.6-3.5-2-4.7c-1.1-0.9-2.6-1.2-4.9-1.2h-1.3L38.3,105.3z"/>
		<path class="st0" d="M50.5,106.8H51c1.2,0,1.7-0.4,1.7-1.8v-8.7c0-1.4-0.4-1.8-1.8-1.8h-0.4V94H61l0.1,3h-0.6
			c-0.3-1.9-0.7-2.2-2.3-2.2h-3.3v5.5h3.3c1.3,0,1.5-0.2,1.6-1.7h0.6v4.1h-0.6c0-1.6-0.2-1.8-1.8-1.8h-3.1v4.3c0,1.3,0,1.3,1.4,1.3
			h2.3c1.7,0,2.1-0.4,2.7-2.5h0.6l-0.3,3.2h-11L50.5,106.8z"/>
		<path class="st0" d="M63.8,106.8h0.5c1.3,0,1.7-0.4,1.7-1.8v-8.7c0-1.2-0.2-1.5-1.7-1.5c-0.2,0-0.4,0-0.5,0v-0.5
			c1.7-0.2,3.5-0.3,5.2-0.3c3.9,0,6,1.3,6,3.8c0,1.8-0.8,2.8-2.9,3.5c0.7,0.6,0.8,0.9,1.8,3s1.5,2.5,2.7,2.7v0.5c-0.2,0-0.3,0-0.5,0
			c-1.5,0-2.8-0.7-3.7-1.9c-0.8-1.1-1.5-2.3-2.1-3.6c0,0-0.2-0.2-0.4-0.6h-1.9v3c0,1.8,0.2,2.2,1.4,2.2h0.9v0.5h-6.8V106.8z
			 M69.6,101c2.2,0,3.2-1,3.2-3.2c0.1-1.7-1.1-3.2-2.8-3.3c-0.2,0-0.4,0-0.6,0c-0.3,0-0.8,0-1.2,0.1v6.4H69.6z"/>
		<path class="st0" d="M87.2,93.3c0-2,0-2.1-0.4-2.5c-0.5-0.4-1.2-0.6-1.8-0.6h-0.3v-0.5h7.1v0.5c-1.9,0.1-2.2,0.5-2.2,3v9
			c0.1,1.5,0,3-0.2,4.5c-0.6,4.5-2.7,7.2-5.7,7.2c-1.6,0-2.8-0.7-2.8-1.5c0-0.6,0.5-1,1.1-1.1c0.3,0,0.6,0.1,1.4,0.7
			c0.4,0.4,1,0.6,1.5,0.7c0.6,0,1.2-0.3,1.6-0.8c0.6-0.9,0.7-1.5,0.7-5.3L87.2,93.3z"/>
		<path class="st0" d="M106.7,101.8c0.1,1.3-0.1,2.5-0.6,3.7c-0.8,1.4-2.6,2.3-5,2.3s-4.3-0.9-5.1-2.4c-0.4-0.9-0.5-1.8-0.4-2.7v-6
			c0-1.3,0-1.4-0.4-1.7s-0.6-0.2-1.8-0.3v-0.5h6.8v0.5c-1.9,0.1-2.3,0.4-2.3,2.1v5.6c-0.1,1,0.1,2.1,0.5,3c0.8,1.1,2,1.7,3.4,1.6
			c2,0,3.4-0.8,3.9-2.2c0.3-1,0.4-1.9,0.3-2.9v-4.5c0-2.2-0.2-2.4-2.3-2.5V94h5.4v0.5h-0.5c-1.2,0-1.7,0.4-1.7,1.8L106.7,101.8z"/>
		<path class="st0" d="M110.8,106.8c1.3-0.1,1.5-0.1,1.9-0.4s0.5-0.6,0.5-1.6v-8c0-1.7-0.2-1.8-2.4-1.9v-0.5
			c2.1-0.3,4.3-0.4,6.4-0.5c2.3-0.1,4.6,0.5,6.5,1.7c1.4,1.2,2.2,3,2.2,4.8c0,2.6-1.5,5-3.9,6c-1.9,0.7-3.9,1-5.9,0.8h-5.3V106.8z
			 M115.4,105.3c0,0.4,0,0.7,0.1,1.1c0.2,0.2,0.8,0.4,1.8,0.4c4,0,6.3-2.3,6.3-6.2c0.1-1.8-0.6-3.5-2-4.7c-1.1-0.9-2.6-1.2-4.9-1.2
			h-1.3L115.4,105.3z"/>
		<path class="st0" d="M128,106.8c0.2,0,0.3,0,0.5,0c0.9-0.1,1.2-0.2,1.4-0.5c0.3-0.9,0.4-1.9,0.3-2.9v-6.8c0-1.7-0.3-1.9-2.3-2.1
			V94h6.7v0.5c-1.3,0.1-1.6,0.1-1.9,0.5s-0.3,0.4-0.3,2.2v7.4c0,1.7,0.3,1.9,2.3,2.1v0.5H128V106.8z"/>
		<path class="st0" d="M149.5,104.2c-0.4,1.2-1,2.3-1.7,3.4c-0.4,0-0.6-0.1-0.8-0.1c-0.8,0-1.5,0.1-2.3,0.2c-0.4,0-0.9,0.1-1.3,0.1
			c-1.5,0-3.1-0.4-4.3-1.2c-1.7-1.3-2.7-3.4-2.7-5.6c0-4,3.3-7.2,7.3-7.3c1.3,0,1.3,0,3.7,1c0.2,0.1,0.3,0.1,0.5,0.1
			c0.2,0,0.5-0.1,0.6-0.3h0.6l0.1,3.2h-0.5c-0.4-0.8-1-1.6-1.6-2.1c-0.9-0.7-2.1-1.1-3.3-1.1c-2.8,0-5,2.8-5,6.7
			c0,3.5,2.2,6.1,5,6.1c1.9,0,3.6-0.9,5.2-3L149.5,104.2z"/>
		<path class="st0" d="M151,106.8c0.2,0,0.3,0,0.5,0c0.9-0.1,1.2-0.2,1.4-0.5c0.3-0.9,0.4-1.9,0.3-2.9v-6.8c0-1.7-0.3-1.9-2.3-2.1
			V94h6.7v0.5c-1.3,0.1-1.6,0.1-1.9,0.5s-0.3,0.4-0.3,2.2v7.4c0,1.7,0.3,1.9,2.3,2.1v0.5H151V106.8z"/>
		<path class="st0" d="M159.5,106.8c1.4-0.3,1.7-0.7,2.4-2.6l3.8-9.7l-0.3-0.9h2.2l4.2,11.4c0.5,1.5,0.7,1.7,2.2,1.8v0.5h-6.4v-0.5
			c0.5,0,1,0,1.5-0.2c0.3-0.1,0.5-0.4,0.5-0.8c-0.1-0.6-0.2-1.1-0.4-1.7l-0.9-2.6h-4.4l-0.7,1.8c-0.3,0.7-0.5,1.5-0.6,2.2
			c0,0.7,0.5,1,2.1,1.2v0.5h-5.2L159.5,106.8z M168,100.7l-1.8-5l-2,5H168z"/>
		<path class="st0" d="M176,106.8h0.5c1.3,0,1.7-0.4,1.7-1.8v-8.1c0-1.4,0-1.6-0.4-1.9s-0.7-0.4-1.7-0.4h-0.3V94h7.1v0.5
			c-1.6,0-1.7,0-2.1,0.2s-0.4,0.4-0.4,1.3v9.4c0,0.7,0,0.7,0.1,0.8s0.9,0.3,2.2,0.3c2.3,0,2.8-0.3,4-2.4h0.5l-1.3,3.1H176V106.8z"/>
		<path class="st0" d="M47.5,135h0.4c0.5,0.1,1.1-0.1,1.5-0.4c0.3-0.3,0.3-0.4,0.3-2V124c0-1.4-0.1-1.7-0.3-2s-0.7-0.4-1.7-0.4h-0.2
			v-0.4c4-0.2,6.2-0.2,6.9-0.2c2.9,0,4.7,0.4,6.2,1.6c1.7,1.2,2.7,3.2,2.6,5.3c0,2.8-1.6,5.4-4.1,6.7c-1.1,0.6-2.3,0.9-3.6,0.9
			c-0.4,0-1,0-2.4,0h-5.7L47.5,135z M51.6,133.4c0,0.9,0,1.1,0.2,1.3s0.5,0.3,1.5,0.3c3,0,4.1-0.3,5.4-1.4c1.6-1.3,2.5-3.3,2.4-5.4
			c0-3.5-1.9-5.9-5-6.5c-1.1-0.2-2.2-0.3-3.3-0.3c-0.5,0-0.9,0-1.3,0V133.4z"/>
		<path class="st0" d="M65.2,135h0.4c1,0,1.4-0.4,1.4-1.4v-7.1c0-1.2-0.3-1.5-1.5-1.5h-0.3v-0.4h8.6l0.1,2.4h-0.5
			c-0.3-1.5-0.6-1.8-1.9-1.8h-2.7v4.5h2.7c1.1,0,1.2-0.1,1.3-1.4h0.5v3.4h-0.5c0-1.3-0.2-1.5-1.5-1.5h-2.5v3.6c0,1.1,0,1.1,1.2,1.1
			h1.9c1.4,0,1.8-0.4,2.2-2h0.5l-0.2,2.7h-9L65.2,135z"/>
		<path class="st0" d="M76,135h0.4c1,0,1.4-0.4,1.4-1.4v-6.7c0-1.2,0-1.3-0.3-1.6s-0.5-0.3-1.4-0.3h-0.2v-0.4h5.8v0.4
			c-1.3,0-1.4,0-1.7,0.2s-0.3,0.3-0.3,1.1v7.7c0,0.6,0,0.6,0.1,0.7s0.7,0.2,1.8,0.2c1.9,0,2.3-0.3,3.2-2h0.4l-1.1,2.6H76V135z"/>
		<path class="st0" d="M92.2,135h0.3c0.9-0.1,1.2-0.1,1.4-0.4s0.2-0.3,0.2-1.9v-9.2c0-1.3,0-1.4-0.2-1.6s-0.3-0.3-1.4-0.3h-0.6v-0.4
			c1.9-0.1,3.8-0.2,5-0.2c2.3,0,3.6,0.2,4.6,0.8c1.2,0.6,2,1.9,2,3.3c0,2.7-2.2,4.4-5.6,4.4c-0.6,0-1.3-0.1-1.9-0.2v3.3
			c-0.1,0.6,0,1.2,0.2,1.8c0.4,0.5,1,0.7,1.6,0.6h0.8v0.4h-6.3V135z M97.3,129c2.1,0.1,3.9-1.6,4-3.7c0-0.1,0-0.2,0-0.3
			c0-1.1-0.4-2.2-1.2-2.9c-0.8-0.5-1.8-0.8-2.8-0.7c-0.5,0-0.9,0-1.4,0.1v7.3C96.4,128.9,96.8,129,97.3,129L97.3,129z"/>
		<path class="st0" d="M105,135h0.4c1,0,1.4-0.4,1.4-1.4v-7.1c0-1.2-0.3-1.5-1.5-1.5H105v-0.4h8.6l0.1,2.4h-0.5
			c-0.3-1.5-0.6-1.8-1.9-1.8h-2.7v4.5h2.7c1.1,0,1.2-0.1,1.3-1.4h0.5v3.4h-0.5c0-1.3-0.2-1.5-1.5-1.5h-2.5v3.6c0,1.1,0,1.1,1.1,1.1
			h1.9c1.4,0,1.8-0.4,2.2-2h0.5l-0.2,2.7h-9L105,135z"/>
		<path class="st0" d="M115.8,135h0.4c1,0,1.4-0.4,1.4-1.4v-7.2c0-1-0.2-1.2-1.4-1.3c-0.1,0-0.3,0-0.4,0v-0.4
			c1.4-0.2,2.9-0.3,4.3-0.3c3.2,0,4.9,1.1,4.9,3.1c0,1.4-0.7,2.3-2.4,2.9c0.5,0.5,0.7,0.8,1.5,2.5s1.2,2.1,2.2,2.2v0.4
			c-0.1,0-0.2,0-0.4,0c-1.2,0-2.3-0.6-3-1.5c-0.7-0.9-1.2-1.9-1.7-2.9c0-0.1-0.1-0.2-0.3-0.5h-1.6v2.5c0,1.5,0.2,1.8,1.2,1.8h0.8
			v0.4h-5.6L115.8,135z M120.6,130.2c1.3,0.2,2.4-0.7,2.6-2c0-0.2,0-0.4,0-0.7c0.1-1.4-0.9-2.6-2.3-2.7c-0.2,0-0.3,0-0.5,0
			c-0.3,0-0.7,0-1,0v5.3L120.6,130.2z"/>
		<path class="st0" d="M137.6,130.9c0.1,1-0.1,2.1-0.5,3c-0.7,1.2-2.1,1.9-4.1,1.9s-3.5-0.7-4.2-2c-0.3-0.7-0.4-1.5-0.4-2.2v-4.9
			c0-1,0-1.1-0.4-1.4s-0.5-0.2-1.5-0.3v-0.4h5.6v0.4c-1.6,0.1-1.9,0.3-1.9,1.7v4.6c-0.1,0.8,0.1,1.7,0.4,2.4
			c0.6,0.9,1.7,1.4,2.8,1.3c1.6,0,2.8-0.7,3.2-1.8c0.2-0.8,0.3-1.6,0.2-2.4V127c0-1.8-0.2-2-1.9-2.1v-0.4h4.5v0.4H139
			c-1,0-1.4,0.3-1.4,1.5L137.6,130.9z M135.1,118.9h2.8l-5.6,4.2h-0.4L135.1,118.9z"/>
		<polyline class="st1" points="62.2,30 62.2,36.8 62.2,30 82.3,30 82.3,0 91,0 91,36.8 62.2,36.8 		"/>
		<path class="st1" d="M50.3,0v37h8.1V26.7h20.2l0.2-0.2V0H50.3z M70.9,19.8H58.6V6.3h12.3V19.8z"/>
		<polyline class="st2" points="106.4,30 106.4,36.8 106.4,30 126.6,30 126.6,0 135.3,0 135.3,36.8 106.4,36.8 		"/>
		<path class="st2" d="M94.6,0v37h8.1V26.7h20.2l0.2-0.2V0H94.6z M115.1,19.8h-12.3V6.3h12.2L115.1,19.8z"/>
		<polyline class="st2" points="62.2,70.3 62.2,77.1 62.2,70.3 82.3,70.3 82.3,40.3 91,40.3 91,77.1 62.2,77.1 		"/>
		<path class="st2" d="M50.3,40.3v37h8.1V67h20.2l0.2-0.2V40.3H50.3z M70.9,60.1H58.6V46.6h12.3V60.1z"/>
		<polyline class="st1" points="106.4,70.3 106.4,77.1 106.4,70.3 126.6,70.3 126.6,40.3 135.3,40.3 135.3,77.1 106.4,77.1 		"/>
		<path class="st1" d="M94.6,40.3v37h8.1V67h20.2l0.2-0.2V40.3H94.6z M115.1,60.1h-12.3V46.6h12.2L115.1,60.1z"/>
	</g>
</g>
</svg>
